<?xml version="1.0" encoding="UTF-8"?>
<svg width="600" height="574" viewBox="0 0 600 574" xmlns="http://www.w3.org/2000/svg" role="img" aria-label="GitHub language stats">
  <style>
    @import url('https://fonts.googleapis.com/css2?family=Inter:wght@400;500&amp;display=swap');
    text { font-family: 'Inter', -apple-system, sans-serif; }
  </style>

  <!-- Background -->
  <rect width="100%" height="100%" fill="#FAFAFA"/>
  <rect x="0.5" y="0.5" width="599" height="573" fill="none" stroke="#E4E4E7" stroke-width="1"/>

  <!-- Header -->
  <text x="32" y="40" font-size="11" fill="#71717A" font-weight="500" letter-spacing="1">LANGUAGE DISTRIBUTION</text>
  <line x1="32" y1="52" x2="568" y2="52" stroke="#E4E4E7" stroke-width="1"/>
  <text x="568" y="40" font-size="11" fill="#71717A" text-anchor="end">48 repos</text>

  <!-- Bars -->
  
    <text x="32" y="100" font-size="13" fill="#18181B" font-weight="400">Python</text>
    <rect x="142" y="82" width="366" height="28" fill="none" stroke="#E4E4E7" stroke-width="1"/>
    <rect x="142" y="82" width="366.00" height="28" fill="none" stroke="#18181B" stroke-width="2"/>
    <text x="568" y="100" font-size="12" fill="#71717A" text-anchor="end">28.0%</text>
    <text x="32" y="144" font-size="13" fill="#18181B" font-weight="400">Go</text>
    <rect x="142" y="126" width="366" height="28" fill="none" stroke="#E4E4E7" stroke-width="1"/>
    <rect x="142" y="126" width="235.29" height="28" fill="none" stroke="#18181B" stroke-width="2"/>
    <text x="568" y="144" font-size="12" fill="#71717A" text-anchor="end">18.0%</text>
    <text x="32" y="188" font-size="13" fill="#18181B" font-weight="400">Rust</text>
    <rect x="142" y="170" width="366" height="28" fill="none" stroke="#E4E4E7" stroke-width="1"/>
    <rect x="142" y="170" width="169.93" height="28" fill="none" stroke="#18181B" stroke-width="2"/>
    <text x="568" y="188" font-size="12" fill="#71717A" text-anchor="end">13.0%</text>
    <text x="32" y="232" font-size="13" fill="#18181B" font-weight="400">TypeScript</text>
    <rect x="142" y="214" width="366" height="28" fill="none" stroke="#E4E4E7" stroke-width="1"/>
    <rect x="142" y="214" width="156.86" height="28" fill="none" stroke="#18181B" stroke-width="2"/>
    <text x="568" y="232" font-size="12" fill="#71717A" text-anchor="end">12.0%</text>
    <text x="32" y="276" font-size="13" fill="#18181B" font-weight="400">Java</text>
    <rect x="142" y="258" width="366" height="28" fill="none" stroke="#E4E4E7" stroke-width="1"/>
    <rect x="142" y="258" width="130.71" height="28" fill="none" stroke="#18181B" stroke-width="2"/>
    <text x="568" y="276" font-size="12" fill="#71717A" text-anchor="end">10.0%</text>
    <text x="32" y="320" font-size="13" fill="#18181B" font-weight="400">C#</text>
    <rect x="142" y="302" width="366" height="28" fill="none" stroke="#E4E4E7" stroke-width="1"/>
    <rect x="142" y="302" width="78.43" height="28" fill="none" stroke="#18181B" stroke-width="2"/>
    <text x="568" y="320" font-size="12" fill="#71717A" text-anchor="end">6.0%</text>
    <text x="32" y="364" font-size="13" fill="#18181B" font-weight="400">Shell</text>
    <rect x="142" y="346" width="366" height="28" fill="none" stroke="#E4E4E7" stroke-width="1"/>
    <rect x="142" y="346" width="52.29" height="28" fill="none" stroke="#18181B" stroke-width="2"/>
    <text x="568" y="364" font-size="12" fill="#71717A" text-anchor="end">4.0%</text>
    <text x="32" y="408" font-size="13" fill="#18181B" font-weight="400">Makefile</text>
    <rect x="142" y="390" width="366" height="28" fill="none" stroke="#E4E4E7" stroke-width="1"/>
    <rect x="142" y="390" width="39.21" height="28" fill="none" stroke="#18181B" stroke-width="2"/>
    <text x="568" y="408" font-size="12" fill="#71717A" text-anchor="end">3.0%</text>
    <text x="32" y="452" font-size="13" fill="#18181B" font-weight="400">Lua</text>
    <rect x="142" y="434" width="366" height="28" fill="none" stroke="#E4E4E7" stroke-width="1"/>
    <rect x="142" y="434" width="39.21" height="28" fill="none" stroke="#18181B" stroke-width="2"/>
    <text x="568" y="452" font-size="12" fill="#71717A" text-anchor="end">3.0%</text>
    <text x="32" y="496" font-size="13" fill="#18181B" font-weight="400">Markdown</text>
    <rect x="142" y="478" width="366" height="28" fill="none" stroke="#E4E4E7" stroke-width="1"/>
    <rect x="142" y="478" width="39.21" height="28" fill="none" stroke="#18181B" stroke-width="2"/>
    <text x="568" y="496" font-size="12" fill="#71717A" text-anchor="end">3.0%</text>

  <!-- Footer -->
  <line x1="32" y1="534" x2="568" y2="534" stroke="#E4E4E7" stroke-width="1"/>
  <text x="32" y="550" font-size="10" fill="#A1A1AA">2026-02-01T13:41:00.000Z</text>
</svg>